<?xml version="1.0" encoding="UTF-8"?>
<svg width="40" height="40" viewBox="0 0 200 180" xmlns="http://www.w3.org/2000/svg">
  <g fill="#374151" stroke="none">
    <!-- Dog silhouette jumping over obstacle -->
    <path d="M20 100 Q25 95 35 90 Q45 85 60 80 Q75 75 90 78 Q105 80 115 85 Q125 90 130 95 Q135 100 135 105 L130 110 Q125 115 115 120 Q105 125 90 128 Q75 130 60 128 Q45 125 35 120 Q25 115 20 110 L20 100 Z"/>
    
    <!-- Dog head -->
    <path d="M15 80 Q10 75 10 70 Q10 65 15 60 Q20 55 25 52 Q30 50 35 48 Q40 47 45 48 Q50 50 55 52 Q60 55 65 60 Q70 65 70 70 Q70 75 65 80 Q60 85 55 88 Q50 90 45 92 Q40 93 35 92 Q30 90 25 88 Q20 85 15 80 Z"/>
    
    <!-- Dog ears -->
    <path d="M20 52 Q17 45 15 40 Q13 35 15 30 Q17 28 20 30 Q23 32 25 35 Q27 40 25 45 Q23 50 20 52 Z"/>
    <path d="M60 52 Q63 45 65 40 Q67 35 65 30 Q63 28 60 30 Q57 32 55 35 Q53 40 55 45 Q57 50 60 52 Z"/>
    
    <!-- Dog legs in jumping motion -->
    <path d="M35 125 Q30 130 25 135 Q20 140 15 145 Q10 150 15 155 Q20 153 25 148 Q30 143 35 138 Q40 133 40 128"/>
    <path d="M55 125 Q60 130 65 135 Q70 140 75 145 Q80 150 75 155 Q70 153 65 148 Q60 143 55 138 Q50 133 50 128"/>
    <path d="M105 125 Q110 130 115 135 Q120 140 125 145 Q130 150 125 155 Q120 153 115 148 Q110 143 105 138 Q100 133 100 128"/>
    <path d="M125 125 Q130 130 135 135 Q140 140 145 145 Q150 150 145 155 Q140 153 135 148 Q130 143 125 138 Q120 133 120 128"/>
    
    <!-- Dog tail -->
    <path d="M135 105 Q140 100 145 95 Q150 90 155 85 Q160 80 165 75 Q170 70 165 65 Q160 67 155 72 Q150 77 145 82 Q140 87 135 92"/>
    
    <!-- Person silhouette running/guiding -->
    <path d="M150 40 Q155 35 160 30 Q165 25 170 20 Q175 15 180 10 Q185 5 190 10 Q195 15 190 20 Q185 25 180 30 Q175 35 170 40 Q165 45 160 50 Q155 55 150 60"/>
    
    <!-- Person body -->
    <path d="M150 60 Q145 65 145 70 Q145 75 150 80 Q155 85 160 90 Q165 95 170 100 Q175 105 180 110 Q185 115 190 120 Q195 125 200 130 Q205 135 200 140 Q195 135 190 130 Q185 125 180 120 Q175 115 170 110 Q165 105 160 100 Q155 95 150 90 Q145 85 145 80 Q145 75 150 70 Q155 65 150 60"/>
    
    <!-- Person arms -->
    <path d="M160 70 Q155 65 150 60 Q145 55 140 50 Q135 45 130 40 Q125 35 120 30 Q115 25 120 20 Q125 25 130 30 Q135 35 140 40 Q145 45 150 50 Q155 55 160 60"/>
    <path d="M180 70 Q185 65 190 60 Q195 55 200 50 Q205 45 210 40 Q215 35 220 30 Q225 25 220 20 Q215 25 210 30 Q205 35 200 40 Q195 45 190 50 Q185 55 180 60"/>
    
    <!-- Person legs in running motion -->
    <path d="M170 130 Q165 135 160 140 Q155 145 150 150 Q145 155 140 160 Q135 165 140 170 Q145 165 150 160 Q155 155 160 150 Q165 145 170 140"/>
    <path d="M190 130 Q195 135 200 140 Q205 145 210 150 Q215 155 220 160 Q225 165 220 170 Q215 165 210 160 Q205 155 200 150 Q195 145 190 140"/>
    
    <!-- Agility jump obstacle -->
    <rect x="80" y="135" width="4" height="40" fill="#374151"/>
    <rect x="130" y="135" width="4" height="40" fill="#374151"/>
    <rect x="82" y="145" width="50" height="3" fill="#374151"/>
    <rect x="82" y="155" width="50" height="3" fill="#374151"/>
    <rect x="82" y="165" width="50" height="3" fill="#374151"/>
    
    <!-- Base of jump -->
    <rect x="75" y="172" width="64" height="6" fill="#374151"/>
  </g>
</svg>
