<?xml version="1.0" encoding="UTF-8"?>
<svg width="40" height="40" viewBox="0 0 200 200" xmlns="http://www.w3.org/2000/svg">
  <g fill="#374151" stroke="none">
    <!-- Dog silhouette jumping/attacking -->
    <path d="M30 120 Q35 115 45 110 Q55 105 70 100 Q85 95 100 98 Q115 100 125 105 Q135 110 140 115 Q145 120 145 125 L140 130 Q135 135 125 140 Q115 145 100 148 Q85 150 70 148 Q55 145 45 140 Q35 135 30 130 L30 120 Z"/>
    
    <!-- Dog head -->
    <path d="M25 100 Q20 95 20 90 Q20 85 25 80 Q30 75 35 72 Q40 70 45 68 Q50 67 55 68 Q60 70 65 72 Q70 75 75 80 Q80 85 80 90 Q80 95 75 100 Q70 105 65 108 Q60 110 55 112 Q50 113 45 112 Q40 110 35 108 Q30 105 25 100 Z"/>
    
    <!-- Dog ears -->
    <path d="M30 72 Q27 65 25 60 Q23 55 25 50 Q27 48 30 50 Q33 52 35 55 Q37 60 35 65 Q33 70 30 72 Z"/>
    <path d="M70 72 Q73 65 75 60 Q77 55 75 50 Q73 48 70 50 Q67 52 65 55 Q63 60 65 65 Q67 70 70 72 Z"/>
    
    <!-- Dog legs in action pose -->
    <path d="M45 145 Q40 150 35 155 Q30 160 25 165 Q20 170 25 175 Q30 173 35 168 Q40 163 45 158 Q50 153 50 148"/>
    <path d="M65 145 Q70 150 75 155 Q80 160 85 165 Q90 170 85 175 Q80 173 75 168 Q70 163 65 158 Q60 153 60 148"/>
    
    <!-- Dog tail -->
    <path d="M145 125 Q150 120 155 115 Q160 110 165 105 Q170 100 175 95 Q180 90 175 85 Q170 87 165 92 Q160 97 155 102 Q150 107 145 112"/>
    
    <!-- Person silhouette -->
    <path d="M120 60 Q125 55 130 50 Q135 45 140 40 Q145 35 150 30 Q155 25 160 20 Q165 15 170 20 Q175 25 170 30 Q165 35 160 40 Q155 45 150 50 Q145 55 140 60 Q135 65 130 70 Q125 75 120 80"/>
    
    <!-- Person body -->
    <path d="M120 80 Q115 85 115 90 Q115 95 120 100 Q125 105 130 110 Q135 115 140 120 Q145 125 150 130 Q155 135 160 140 Q165 145 170 150 Q175 155 180 160 Q185 165 180 170 Q175 165 170 160 Q165 155 160 150 Q155 145 150 140 Q145 135 140 130 Q135 125 130 120 Q125 115 120 110 Q115 105 115 100 Q115 95 120 90 Q125 85 120 80"/>
    
    <!-- Person arms -->
    <path d="M130 90 Q125 85 120 80 Q115 75 110 70 Q105 65 100 60 Q95 55 90 50 Q85 45 90 40 Q95 45 100 50 Q105 55 110 60 Q115 65 120 70 Q125 75 130 80"/>
    <path d="M150 90 Q155 85 160 80 Q165 75 170 70 Q175 65 180 60 Q185 55 190 50 Q195 45 190 40 Q185 45 180 50 Q175 55 170 60 Q165 65 160 70 Q155 75 150 80"/>
    
    <!-- Person legs -->
    <path d="M140 160 Q135 165 130 170 Q125 175 120 180 Q115 185 110 190 Q105 195 110 200 Q115 195 120 190 Q125 185 130 180 Q135 175 140 170"/>
    <path d="M160 160 Q165 165 170 170 Q175 175 180 180 Q185 185 190 190 Q195 195 190 200 Q185 195 180 190 Q175 185 170 180 Q165 175 160 170"/>
    
    <!-- Training equipment/sleeve on arm -->
    <ellipse cx="110" cy="65" rx="15" ry="8" fill="#374151"/>
    <path d="M95 65 Q90 60 85 55 Q80 50 75 45 Q70 40 65 35" stroke="#374151" stroke-width="2" fill="none"/>
  </g>
</svg>
