<?xml version="1.0" encoding="UTF-8"?>
<svg width="40" height="40" viewBox="0 0 200 150" xmlns="http://www.w3.org/2000/svg">
  <g fill="#374151" stroke="#374151" stroke-width="2">
    <!-- German Shepherd silhouette -->
    <path d="M20 120 Q25 110 35 105 Q45 100 60 95 Q70 90 85 88 Q100 85 115 88 Q130 90 140 95 Q150 100 160 105 Q170 110 175 120 L175 130 Q170 135 160 138 Q150 140 140 142 Q130 143 115 145 Q100 146 85 145 Q70 143 60 142 Q50 140 40 138 Q30 135 25 130 L20 120 Z"/>
    
    <!-- Dog head -->
    <path d="M40 90 Q35 85 35 80 Q35 75 40 70 Q45 65 50 62 Q55 60 60 58 Q65 57 70 58 Q75 60 80 62 Q85 65 90 70 Q95 75 95 80 Q95 85 90 90 Q85 95 80 98 Q75 100 70 102 Q65 103 60 102 Q55 100 50 98 Q45 95 40 90 Z"/>
    
    <!-- Ears -->
    <path d="M45 62 Q42 55 40 50 Q38 45 40 40 Q42 38 45 40 Q48 42 50 45 Q52 50 50 55 Q48 60 45 62 Z"/>
    <path d="M85 62 Q88 55 90 50 Q92 45 90 40 Q88 38 85 40 Q82 42 80 45 Q78 50 80 55 Q82 60 85 62 Z"/>
    
    <!-- Legs -->
    <path d="M50 140 L50 145 Q50 148 52 150 Q55 152 58 150 Q60 148 60 145 L60 140"/>
    <path d="M70 140 L70 145 Q70 148 72 150 Q75 152 78 150 Q80 148 80 145 L80 140"/>
    <path d="M120 140 L120 145 Q120 148 122 150 Q125 152 128 150 Q130 148 130 145 L130 140"/>
    <path d="M140 140 L140 145 Q140 148 142 150 Q145 152 148 150 Q150 148 150 145 L150 140"/>
    
    <!-- Tail -->
    <path d="M175 120 Q180 115 185 110 Q190 105 195 100 Q198 95 195 90 Q192 88 188 90 Q185 92 182 95 Q180 100 178 105 Q176 110 175 115"/>
    
    <!-- Training equipment - ball or object -->
    <circle cx="65" cy="110" r="8" fill="none" stroke="#374151" stroke-width="2"/>
    <path d="M60 105 L70 115 M70 105 L60 115" stroke="#374151" stroke-width="1"/>
  </g>
</svg>
